<?xml version="1.0" encoding="utf-8"?>
<!-- Generator: Adobe Illustrator 22.1.0, SVG Export Plug-In . SVG Version: 6.00 Build 0)  -->
<svg version="1.1" id="Layer_1" xmlns="http://www.w3.org/2000/svg" xmlns:xlink="http://www.w3.org/1999/xlink" x="0px" y="0px"
	 viewBox="0 0 96 96" style="enable-background:new 0 0 96 96;" xml:space="preserve">
<style type="text/css">
	.st0{fill:#010101;}
</style>
<g id="Settings">
	<g>
		<path class="st0" d="M95.7,42.7c-0.2-1.3-1.7-2.4-3.1-2.4c-4.4,0-8.3-2.6-9.9-6.6c-1.7-4.1-0.6-8.9,2.7-11.9
			c1-0.9,1.2-2.5,0.3-3.6c-2.3-2.9-4.8-5.4-7.6-7.7c-1.1-0.9-2.7-0.8-3.6,0.3c-2.9,3.2-8,4.3-12,2.7c-4.1-1.7-6.7-5.9-6.5-10.4
			C56,1.7,55,0.5,53.6,0.3c-3.6-0.4-7.2-0.4-10.8,0c-1.4,0.2-2.4,1.4-2.4,2.7c0.2,4.5-2.5,8.6-6.6,10.2c-3.9,1.6-9,0.4-11.9-2.7
			c-0.9-1-2.5-1.2-3.6-0.3c-2.9,2.3-5.5,4.8-7.8,7.7c-0.9,1.1-0.8,2.7,0.3,3.6c3.3,3,4.4,7.8,2.7,12c-1.7,3.9-5.8,6.5-10.4,6.5
			c-1.5,0-2.6,1-2.8,2.4c-0.4,3.6-0.4,7.3,0,10.9c0.2,1.4,1.8,2.4,3.1,2.4c4.2-0.1,8.2,2.5,9.9,6.6c1.7,4.1,0.6,8.9-2.7,11.9
			c-1,0.9-1.2,2.5-0.3,3.6c2.2,2.8,4.8,5.4,7.6,7.7c1.1,0.9,2.7,0.8,3.7-0.3c2.9-3.2,8-4.4,12-2.7c4.1,1.7,6.7,5.9,6.5,10.4
			c-0.1,1.4,1,2.6,2.4,2.8c1.8,0.2,3.7,0.3,5.5,0.3c1.8,0,3.5-0.1,5.3-0.3c1.4-0.2,2.4-1.4,2.4-2.7c-0.2-4.4,2.5-8.6,6.6-10.2
			c4-1.6,9-0.4,11.9,2.7c0.9,1,2.5,1.2,3.6,0.3c2.9-2.3,5.5-4.8,7.8-7.7c0.9-1.1,0.8-2.7-0.3-3.6c-3.3-3-4.4-7.8-2.7-12
			c1.6-3.9,5.6-6.5,9.8-6.5l0.6,0c1.4,0.1,2.6-0.9,2.8-2.4C96.1,50,96.1,46.3,95.7,42.7z M48.1,64.1c-8.8,0-16-7.2-16-16
			c0-8.8,7.2-16,16-16c8.8,0,16,7.2,16,16C64.1,56.9,56.9,64.1,48.1,64.1z"/>
	</g>
</g>
</svg>
