<?xml version="1.0" encoding="utf-8"?>
<!-- Generator: Adobe Illustrator 22.1.0, SVG Export Plug-In . SVG Version: 6.00 Build 0)  -->
<svg version="1.1" id="Layer_1" xmlns="http://www.w3.org/2000/svg" xmlns:xlink="http://www.w3.org/1999/xlink" x="0px" y="0px"
	 viewBox="0 0 5952.8 1451.7" style="enable-background:new 0 0 5952.8 1451.7;" xml:space="preserve">
<style type="text/css">
	.st0{fill:#FF7900;}
</style>
<path class="st0" d="M3779.1,329.4l253.2,498L4236,158.2l198.2-92.2l-309.9,1047.6H3974l-253.6-479l-187.7,610.2l-209.9,135.9
	L3634,329.4H3779.1z M3064,1111.7L3064,1111.7c-40.4,8.4-82.4,12.6-126,12.6c-132,0-228.7-36.5-288.8-109.5
	c-29.4-37.9-46.4-84.3-49.6-139l-0.4-12.6c0.1-39.3,5.6-82.9,19.5-130.6c35.1-126.4,100.5-226.1,196.4-296.3
	c67.1-50.6,141.8-84.3,222.7-101.1l4.4,129.2c-108.2,40.7-183,153.1-213.1,259.8c-33.8,120.8-38.6,271,134.1,271
	c33.7,0,65.9-4.2,96.4-15.4L3064,1111.7z M3158,321.1c91.3,0,171.8,12.6,228,56.2c122.5,94.1,122.7,224.7,87.7,351.1
	c-32.6,116.6-95.4,210.7-189.9,282.3c-67.1,50.6-140.4,84.3-219.9,101.1l-4.5-132c31.9-11.2,63.6-30.9,89.2-60.4
	c40.7-42.1,82.6-91.3,118.4-193.8c43.6-122.2,37-276.7-135.8-278.1c-32.3,0-63,5.6-89.3,16.9l-4.4-129.2
	C3075.4,326.7,3116,322.5,3158,321.1z M2134.4,1113.5l188.8-645h-217.9l-128.2,433.2c-68.2,205.8-240,214.5-385.9,211.7
	c-154-3-282-57.2-269.4-199c0.3-32.3,6.8-48,24.2-112.6l140.2-472.4h193.7l-158.1,537.2c-26.3,95.5,30.3,118.4,111.8,123.3
	c89.2,5.3,146.6-32.8,174.1-109.9l161.1-550.6h799.4l-40.5,139.1H2519l-190.8,645H2134.4z M898.3,799.9L1119.5,468l-46.1,332.7
	L898.3,799.9z M1053.4,937.2l-21.3,176.2h193.8l112.3-784.1h-292.8l-598.7,784.1h209L794.9,937L1053.4,937.2z M5332.4,954.9
	L5332.4,954.9v19.7h-18.3v28.1h18.3v28.1l-5.6-8.4h-12.6v46.3h-21.1V954.9H5332.4z M5256.6,1012.5L5256.6,1012.5
	c0-44.9,32.3-80,75.8-80v-21.1c-53.4,0-101.1,40.7-101.1,101.1c0,60.4,47.7,101.1,101.1,101.1v-21.1
	C5288.9,1092.6,5256.6,1057.5,5256.6,1012.5z M5332.4,1030.8L5332.4,1030.8v-28.1c14,0,23.9-1.4,23.9-14c0-12.6-9.8-14-23.9-14
	v-19.7h4.2c26.7,0,42.1,9.8,42.1,33.7c0,21.1-12.6,30.9-29.5,32.3l29.5,47.7h-22.5L5332.4,1030.8z M5332.4,932.5
	c42.1,0,74.4,35.1,74.4,80c0,44.9-32.3,80-74.4,80v21.1c53.4,0,101.1-40.7,101.1-101.1c0-60.4-47.7-101.1-101.1-101.1V932.5z
	 M4867,1113.5l190.5-644.9h-441l-63.1,210.6h254.4l-35.8,120.4h-254.6L4465.7,974h255l-41.6,139.5h-448.5l232.3-784.1H5506
	l-41.4,139.2h-213.7l-190.5,644.9H4867z"/>
</svg>
