<?xml version="1.0" encoding="utf-8"?>
<!-- Generator: Adobe Illustrator 22.1.0, SVG Export Plug-In . SVG Version: 6.00 Build 0)  -->
<svg version="1.1" id="Layer_1" xmlns="http://www.w3.org/2000/svg" xmlns:xlink="http://www.w3.org/1999/xlink" x="0px" y="0px"
	 viewBox="0 0 96 96" style="enable-background:new 0 0 96 96;" xml:space="preserve">
<style type="text/css">
	.st0{fill:#010101;}
</style>
<g>
	<g>
		<path class="st0" d="M42.8,25.8H14.1c-0.6,0-1,0.6-1,1.3s0.5,1.3,1,1.3h28.8c0.6,0,1-0.6,1-1.3S43.4,25.8,42.8,25.8z"/>
		<path class="st0" d="M55.7,25.8h-1.8c0,0-0.1,0.6-0.1,1.3s0,1.3,0.1,1.3h1.8c0,0,0.1-0.6,0.1-1.3S55.8,25.8,55.7,25.8z"/>
		<g>
			<path class="st0" d="M72,34.8H8.4c-1.3,0-1.3,2.5,0,2.5H72C73.3,37.3,73.3,34.8,72,34.8z"/>
			<path class="st0" d="M8.4,92.1h63.3c0.7,0,1.3-0.6,1.3-1.3V17.4c0-0.7-0.6-1.3-1.3-1.3H8.4c-0.7,0-1.3,0.6-1.3,1.3v6.3v7.6v19
				v7.6v19v7.6v6.3C7.1,91.6,7.7,92.1,8.4,92.1z M9.6,57.9v-7.6v-19v-7.6v-5.1h60.8v70.9H9.6v-5.1v-7.6V57.9z"/>
		</g>
		<g>
			<g>
				<g>
					<path class="st0" d="M57,63l-0.8-0.8l-2.7-7.3c-0.5-1.2-1.6-2-2.9-2.1H31.3c-1.3,0-2.5,0.8-2.9,2.1L25.7,62l-1.1,1
						c-1,0.8-1.5,2-1.5,3.3V77c0,1.7,1.4,3.1,3.2,3.1h2c1.7,0,3.1-1.4,3.2-3.1v-1.5H50V77c0,1.7,1.4,3.1,3.2,3.1h2
						c1.7,0,3.1-1.4,3.2-3.1V66.1C58.3,64.9,57.8,63.8,57,63z M29.7,55.4c0.2-0.6,0.9-1.1,1.5-1.1h19.3c0.7,0,1.3,0.4,1.5,1.1
						l2.4,6.3h-1.8c-0.4-2.8-3-4.8-5.9-4.4c-2.3,0.3-4,2.1-4.4,4.4H27.4L29.7,55.4z M51.1,61.7H44c0.4-2,2.4-3.2,4.3-2.8
						C49.7,59.2,50.8,60.3,51.1,61.7z M29.8,77c0,0.9-0.7,1.6-1.6,1.6h-2c-0.9,0-1.6-0.7-1.6-1.6v-2c0.5,0.3,1,0.4,1.6,0.4h3.6V77z
						 M56.8,77c0,0.9-0.7,1.6-1.6,1.6h-2c-0.9,0-1.6-0.7-1.6-1.6v-1.5h3.6c0.6,0,1.2-0.1,1.6-0.4L56.8,77L56.8,77z M55.2,73.9h-29
						c-0.9,0-1.6-0.7-1.6-1.6v-5.9c0-0.8,0.4-1.6,1-2.2c0,0,0,0,0,0l1-1h28.5l0.7,0.8c0,0,0,0,0,0c0.6,0.5,0.9,1.3,0.9,2.1v6.2h0
						C56.8,73.2,56.1,73.9,55.2,73.9z"/>
				</g>
			</g>
			<g>
				<g>
					<path class="st0" d="M33,66.2h-5.7c-0.4,0-0.8,0.3-0.8,0.8v3.9c0,0.4,0.3,0.8,0.8,0.8H33c0.4,0,0.8-0.3,0.8-0.8V67
						C33.7,66.6,33.4,66.2,33,66.2z M32.2,70.1h-4.1v-2.4h4.1V70.1z"/>
				</g>
			</g>
			<g>
				<g>
					<path class="st0" d="M54,66.2h-5.7c-0.4,0-0.8,0.3-0.8,0.8v3.9c0,0.4,0.3,0.8,0.8,0.8H54c0.4,0,0.8-0.3,0.8-0.8V67
						C54.8,66.6,54.4,66.2,54,66.2z M53.3,70.1h-4.1v-2.4h4.1V70.1z"/>
				</g>
			</g>
			<g>
				<g>
					<path class="st0" d="M44.3,69.4H37c-0.4,0-0.8,0.3-0.8,0.8c0,0.4,0.3,0.8,0.8,0.8h7.3c0.4,0,0.8-0.3,0.8-0.8
						C45.1,69.7,44.7,69.4,44.3,69.4z"/>
				</g>
			</g>
			<g>
				<g>
					<path class="st0" d="M44.3,67.1H37c-0.4,0-0.8,0.3-0.8,0.8c0,0.4,0.3,0.8,0.8,0.8h7.3c0.4,0,0.8-0.3,0.8-0.8
						C45.1,67.4,44.7,67.1,44.3,67.1z"/>
				</g>
			</g>
		</g>
	</g>
	<rect x="23" y="3.9" class="st0" width="66.1" height="2.5"/>
	
		<rect x="18.6" y="9.5" transform="matrix(-1.836970e-16 1 -1 -1.836970e-16 35.1012 -13.4925)" class="st0" width="11.4" height="2.5"/>
	
		<rect x="71.9" y="70.4" transform="matrix(-1 -1.224647e-16 1.224647e-16 -1 161.0445 143.3128)" class="st0" width="17.3" height="2.5"/>
	
		<rect x="71.2" y="20" transform="matrix(-1 -1.224647e-16 1.224647e-16 -1 159.7182 42.5628)" class="st0" width="17.3" height="2.5"/>
	
		<rect x="54.8" y="38.2" transform="matrix(-1.836970e-16 1 -1 -1.836970e-16 127.3805 -48.4424)" class="st0" width="66.1" height="2.5"/>
</g>
</svg>
