<svg width="32" height="32" xmlns="http://www.w3.org/2000/svg">
 <style type="text/css">.st0{fill:#010101;}</style>

 <g>
  <title>Layer 1</title>
  <g stroke="null" id="svg_1">
   <path stroke="null" id="svg_2" d="m25.09231,15.28384c-0.791,0 -1.432,0.642 -1.432,1.432l0,10.02l-2.863,0l0,-4.294c0,-0.79 -0.642,-1.431 -1.432,-1.431l-5.726,0c-0.79,0 -1.432,0.64 -1.432,1.431l0,4.295l-2.863,0l0,-10.021c0,-0.79 -0.641,-1.432 -1.431,-1.432l-0.84,0l9.429,-9.428l9.428,9.428l-0.839,0l0.001,0zm5.306,0.42l-12.884,-12.884a1.43,1.43 0 0 0 -2.024,0l-12.884,12.884a1.43,1.43 0 1 0 1.012,2.444l2.864,0l0,10.02a1.43,1.43 0 0 0 1.431,1.432l5.726,0a1.43,1.43 0 0 0 1.431,-1.432l0,-4.294l2.864,0l0,4.294a1.43,1.43 0 0 0 1.431,1.432l5.726,0a1.43,1.43 0 0 0 1.432,-1.432l0,-10.02l2.863,0a1.43,1.43 0 0 0 1.012,-2.444z" class="st0"/>
  </g>
 </g>
</svg>