<?xml version="1.0" encoding="utf-8"?>
<!-- Generator: Adobe Illustrator 22.1.0, SVG Export Plug-In . SVG Version: 6.00 Build 0)  -->
<svg version="1.1" id="Layer_1" xmlns="http://www.w3.org/2000/svg" xmlns:xlink="http://www.w3.org/1999/xlink" x="0px" y="0px"
	 viewBox="0 0 96 96" style="enable-background:new 0 0 96 96;" xml:space="preserve">
<style type="text/css">
	.st0{opacity:0.19;}
	.st1{fill:#010101;}
</style>
<g class="st0">
	<g>
		<path class="st1" d="M87.7,81l-6.9-11.4C77.7,64.2,76,58.2,76,52V42c0-12.7-8.4-23.4-20-26.8V8c0-4.4-3.6-8-8-8s-8,3.6-8,8v7.2
			C28.4,18.6,20,29.3,20,42v10c0,6.2-1.7,12.2-4.8,17.5L8.3,81c-0.4,0.6-0.4,1.4,0,2c0.4,0.6,1,1,1.7,1h76c0.7,0,1.4-0.4,1.7-1
			C88.1,82.4,88.1,81.6,87.7,81z"/>
	</g>
</g>
<g class="st0">
	<g>
		<path class="st1" d="M35.4,88c2.3,4.7,7,8,12.6,8s10.3-3.3,12.6-8H35.4z"/>
	</g>
</g>
</svg>
