<?xml version="1.0" encoding="utf-8"?>
<!-- Generator: Adobe Illustrator 22.1.0, SVG Export Plug-In . SVG Version: 6.00 Build 0)  -->
<svg version="1.1" id="Layer_1" xmlns="http://www.w3.org/2000/svg" xmlns:xlink="http://www.w3.org/1999/xlink" x="0px" y="0px"
	 viewBox="0 0 96 96" style="enable-background:new 0 0 96 96;" xml:space="preserve">
<style type="text/css">
	.st0{fill:#FFFFFF;}
</style>
<g>
	<path class="st0" d="M90,36.5l-7.4-5.3c-2.9-2.1-7.3-1.4-9.4,1.6L44.4,72.9l-1.9,18.2l-1,1.4c-0.7,1-0.5,2.4,0.5,3.1l0,0l0,0
		c0.5,0.4,1.1,0.5,1.7,0.4c0.6-0.1,1.1-0.4,1.5-0.9l1-1.4l16.6-7.6l28.7-40.2C93.7,42.9,93,38.6,90,36.5z M49.7,73.2l19.1-26.7
		l11.1,7.9L60.8,81.1L49.7,73.2z M48.4,77.8l8.4,6l-9.5,4.3L48.4,77.8z M87.8,43.3l-5.3,7.4l-11.1-7.9l5.3-7.4
		c0.7-1,2.1-1.2,3.1-0.5l7.4,5.3C88.3,40.9,88.6,42.3,87.8,43.3z"/>
	<path class="st0" d="M14.6,42.3h42.3c0.9,0,1.6-0.7,1.6-1.6c0-0.9-0.7-1.6-1.6-1.6H14.6c-0.9,0-1.6,0.7-1.6,1.6
		C13,41.5,13.7,42.3,14.6,42.3z"/>
	<path class="st0" d="M50.4,48.8H14.6c-0.9,0-1.6,0.7-1.6,1.6s0.7,1.6,1.6,1.6h35.8c0.9,0,1.6-0.7,1.6-1.6S51.3,48.8,50.4,48.8z"/>
	<path class="st0" d="M14.6,13h21.1c0.9,0,1.6-0.7,1.6-1.6s-0.7-1.6-1.6-1.6H14.6c-0.9,0-1.6,0.7-1.6,1.6S13.7,13,14.6,13z"/>
	<path class="st0" d="M35.7,61.8c0.9,0,1.6-0.7,1.6-1.6c0-0.9-0.7-1.6-1.6-1.6H14.6c-0.9,0-1.6,0.7-1.6,1.6c0,0.9,0.7,1.6,1.6,1.6
		H35.7z"/>
	<path class="st0" d="M61.7,19.5H14.6c-0.9,0-1.6,0.7-1.6,1.6c0,0.9,0.7,1.6,1.6,1.6h47.2c0.9,0,1.6-0.7,1.6-1.6
		C63.4,20.2,62.6,19.5,61.7,19.5z"/>
	<path class="st0" d="M15.9,32.5h40.6c1.6,0,2.9-0.7,2.9-1.6c0-0.9-1.3-1.6-2.9-1.6H15.9c-1.6,0-2.9,0.7-2.9,1.6
		C13,31.8,14.3,32.5,15.9,32.5z"/>
	<path class="st0" d="M43.9,81.3H6.5v-78h11.4h40.7h11.4V39c0,0.9,0.7,1.6,1.6,1.6c0.9,0,1.6-0.7,1.6-1.6V1.6c0-0.9-0.7-1.6-1.6-1.6
		h-13H17.8h-13C3.9,0,3.2,0.7,3.2,1.6v81.3c0,0.9,0.7,1.6,1.6,1.6h39c0.9,0,1.6-0.7,1.6-1.6S44.8,81.3,43.9,81.3z"/>
</g>
</svg>
