<?xml version="1.0" encoding="utf-8"?>
<!-- Generator: Adobe Illustrator 22.1.0, SVG Export Plug-In . SVG Version: 6.00 Build 0)  -->
<svg version="1.1" id="Layer_1" xmlns="http://www.w3.org/2000/svg" xmlns:xlink="http://www.w3.org/1999/xlink" x="0px" y="0px"
	 viewBox="0 0 96 96" style="enable-background:new 0 0 96 96;" xml:space="preserve">
<style type="text/css">
	.st0{fill:#010101;}
</style>
<g>
	<path class="st0" d="M94,18.3c-1.7-2.1-4.3-3.3-7.1-3.3h-59c-1.7,0-3.3,0.5-4.7,1.3l-3-10.5c-0.5-1.7-2.1-2.9-3.9-2.9h-4.6H3
		c-1.7,0-3,1.3-3,3v0.3c0,1.7,1.3,3,3,3h11.5L20.4,30l8.1,28.6c-4.6,1.2-8,5.3-8,10.2c0,5.6,4.3,10.2,9.8,10.5
		c-0.5,1.3-0.7,2.8-0.6,4.2c0.4,5,4.5,9.1,9.5,9.4c6,0.4,11-4.4,11-10.3c0-1.2-0.2-2.3-0.6-3.4h12.1c-0.5,1.4-0.7,3-0.5,4.6
		c0.6,4.9,4.6,8.7,9.5,9.1c6,0.4,11.1-4.3,11.1-10.3c0-5.7-4.8-10.3-10.5-10.3H31.1c-2,0-3.6-1.5-3.7-3.5c-0.1-2.1,1.6-3.8,3.6-3.8
		H37h32.8h9.2c4.1,0,7.7-2.8,8.7-6.8l8-32.3C96.4,23.4,95.8,20.5,94,18.3z M71.6,79.3c1.9,0,3.4,1.5,3.4,3.4c0,1.9-1.5,3.4-3.4,3.4
		c-1.9,0-3.4-1.5-3.4-3.4C68.2,80.9,69.7,79.3,71.6,79.3z M40,79.3c1.9,0,3.4,1.5,3.4,3.4c0,1.9-1.5,3.4-3.4,3.4
		c-1.9,0-3.4-1.5-3.4-3.4S38.1,79.3,40,79.3z M27.5,30L26,24.5c-0.2-0.8,0.1-1.4,0.3-1.7c0.2-0.3,0.7-0.8,1.6-0.8h6.5l1.8,8L27.5,30
		L27.5,30L27.5,30z M29.5,36.9h8.2l1.6,7.4h-7.7L29.5,36.9z M37,58.3c-0.9,0-1.7-0.6-1.9-1.5l-1.6-5.6h7.3l1.5,7L37,58.3L37,58.3
		L37,58.3z M54.3,58.3h-4.9l-1.5-7h6.4L54.3,58.3L54.3,58.3z M54.3,44.3h-7.9l-1.6-7.4h9.6V44.3z M54.3,30H43.2l-1.8-8h12.8V30z
		 M66.7,58.3h-5.5v-7h6.9L66.7,58.3z M69.6,44.3h-8.4v-7.4h10L69.6,44.3z M61.2,30v-8h13.1l-1.7,8H61.2z M81,56.7
		c-0.2,0.9-1,1.5-1.9,1.5h-5.3l1.5-7h7.1L81,56.7z M84.1,44.3h-7.4l1.6-7.4h7.7L84.1,44.3z M89,24.5L87.6,30h-7.9l1.7-8h5.7
		c0.9,0,1.3,0.5,1.6,0.8C88.9,23,89.2,23.6,89,24.5z"/>
</g>
</svg>
