<?xml version="1.0" encoding="utf-8"?>
<!-- Generated by IcoMoon.io -->
<!DOCTYPE svg PUBLIC "-//W3C//DTD SVG 1.1//EN" "http://www.w3.org/Graphics/SVG/1.1/DTD/svg11.dtd">
<svg version="1.1" xmlns="http://www.w3.org/2000/svg" xmlns:xlink="http://www.w3.org/1999/xlink" width="32" height="32" viewBox="0 0 32 32">
<path fill="#333" d="M17.122 16.547c-0.657-1.161-1.023-3.304-1.023-3.304s-0.528 2.533-1.38 3.839c-0.852 1.307-1.672 1.502-1.697 3.474-0.033 1.972 1.534 3.442 3.101 3.442 1.575 0 3.101-1.753 2.987-3.499-0.114-1.737-1.331-2.793-1.989-3.953zM23.583 18.649v6.697c0 1.413-1.096 2.565-2.443 2.565h-10.902c-1.347 0-2.443-1.144-2.443-2.565v-14.059c0-1.412 1.096-2.565 2.443-2.565h4.359c0 0 1.672-0.049 2.184 0.065s0.658 0.39 1.234 1.047c1.104 1.266 2.865 3.361 4.107 4.854 0.852 1.023 1.161 1.299 1.339 1.81s0.122 2.151 0.122 2.151zM27.698 14.866c-0.268-0.771-0.731-1.185-2.005-2.711-1.867-2.24-4.505-5.374-6.153-7.273-0.86-0.982-1.080-1.396-1.843-1.567-0.268-0.065-0.763-0.089-1.282-0.105v0h-0.008c-0.057 0-0.105 0-0.162 0-0.008 0-0.008 0-0.016 0-0.771-0.016-1.558 0-1.761 0.008v0c-0.008 0-0.024 0-0.024 0-0.008 0-0.016 0-0.016 0h-1.283v-2.248c0-0.495-0.398-0.893-0.893-0.893h-3.864c-0.495 0-0.893 0.398-0.893 0.893v2.281c-1.834 0.211-3.255 1.834-3.255 3.815v21.072c0 2.119 1.64 3.839 3.653 3.839h16.348c2.021 0 3.653-1.721 3.653-3.839v-10.041c-0 0 0.081-2.46-0.195-3.231z"></path>
</svg>
