<?xml version="1.0" encoding="utf-8"?>
<!-- Generator: Adobe Illustrator 18.1.1, SVG Export Plug-In . SVG Version: 6.00 Build 0)  -->
<svg version="1.1" id="Layer_1" xmlns="http://www.w3.org/2000/svg" xmlns:xlink="http://www.w3.org/1999/xlink" x="0px" y="0px" width="600" height="800"
	 viewBox="0 0 600 800" enable-background="new 0 0 600 800" xml:space="preserve">
<g>
	<path fill="#44B649" d="M48.4,24.1c0,4.4-1.1,8.5-3.2,12.1C43.1,40,40,42.9,36.4,45s-7.9,3.3-12.2,3.3s-8.5-1-12.1-3.1
		s-6.6-5.2-9-8.9S0,28.6,0,24.1c0-4.4,1-8.4,3.1-12.1S8.3,5.3,12,3.1S19.8,0,24.1,0s8.5,1.1,12.1,3.1c3.6,2.1,6.7,5.2,8.8,8.8
		C47.3,15.8,48.4,19.8,48.4,24.1z"/>
	<path fill="#FFFFFF" d="M15.8,19.1l6.5,6.5l12-12c0.5,0.4,4.4,3.6,4.8,4c0,0-16.3,16.8-16.9,17.2l-11-11L15.8,19.1z"/>
</g>
<path fill="#44B649" d="M96.8,24.1c0,4.4-1.1,8.5-3.1,12.1c-2.1,3.8-5.2,6.7-8.8,8.8s-7.9,3.3-12.2,3.3c-4.4,0-8.5-1-12.1-3.1
	s-6.7-5.2-8.8-8.8c-2.1-3.8-3.2-7.7-3.2-12.1s1.1-8.5,3.2-12.1c2.1-3.8,5.2-6.7,8.8-8.8S68.3,0,72.6,0c4.4,0,8.5,1.1,12.1,3.1
	c3.6,2.1,6.7,5.2,8.8,8.8C95.7,15.8,96.8,19.8,96.8,24.1z"/>
<g>
	<path fill="#44B649" d="M120.9,3c3.8,0,7.4,0.9,10.6,2.7c3.1,1.8,5.9,4.6,7.7,7.7c2,3.5,2.9,7,2.9,10.7c0,3.8-0.9,7.4-2.7,10.6
		c-1.7,3.1-4.3,5.7-7.7,7.7c-3.2,1.9-7,2.9-10.7,2.9c-4,0-7.5-0.9-10.6-2.7c-3.1-1.8-5.9-4.6-7.7-7.7c-1.9-3.5-2.8-6.9-2.8-10.6
		c0-3.9,0.9-7.4,2.8-10.6l0,0l0,0c1.7-3.1,4.3-5.7,7.7-7.7C113.8,4,117.4,3,120.9,3 M120.9,0c-4.3,0-8.4,1.3-12,3.4
		c-3.6,2.1-6.7,5-8.8,8.8c-2.1,3.6-3.2,7.7-3.2,12.1c0,4.4,1.1,8.3,3.2,12.1c2.1,3.6,5.2,6.7,8.8,8.8c3.6,2.1,7.7,3.1,12.1,3.1
		c4.3,0,8.6-1.2,12.2-3.3s6.7-5,8.8-8.8c2-3.6,3.1-7.7,3.1-12.1c0-4.3-1.1-8.3-3.3-12.2c-2.1-3.6-5.2-6.7-8.8-8.8
		C129.4,1.1,125.3,0,120.9,0L120.9,0z"/>
	<path fill="#44B649" d="M145.1,24.1c0,4.4-1,8.5-3.1,12.1s-5.2,6.7-8.8,8.8c-3.8,2.1-7.7,3.3-12.1,3.3s-8.5-1-12.1-3.3
		s-6.7-5.2-8.8-8.8c-2.1-3.6-3.5-7.6-3.5-12.1h24.1V0c4.4,0,8.5,1.1,12.1,3.1c3.8,2.1,6.7,5.2,8.8,8.8
		C144.1,15.8,145.1,19.8,145.1,24.1z"/>
</g>
<g>
	<path fill="#44B649" d="M169.3,3c3.8,0,7.4,0.9,10.6,2.7c3.1,1.8,5.9,4.6,7.7,7.7c2,3.5,2.9,7,2.9,10.7c0,3.8-0.9,7.4-2.7,10.6
		c-1.7,3.1-4.3,5.7-7.7,7.7c-3.2,1.9-7,2.9-10.7,2.9c-4,0-7.5-0.9-10.6-2.7c-3.1-1.8-5.9-4.6-7.7-7.7c-1.9-3.5-2.8-6.9-2.8-10.6
		c0-3.9,0.9-7.4,2.8-10.6l0,0l0,0c1.7-3.1,4.3-5.7,7.7-7.7C162.2,4,165.8,3,169.3,3 M169.3,0c-4.3,0-8.4,1.3-12,3.4
		c-3.6,2.1-6.7,5-8.8,8.8c-2.1,3.6-3.2,7.7-3.2,12.1c0,4.4,1.1,8.3,3.2,12.1c2.1,3.6,5.2,6.7,8.8,8.8c3.6,2.1,7.7,3.1,12.1,3.1
		c4.3,0,8.6-1.2,12.2-3.3s6.7-5,8.8-8.8c2-3.6,3.1-7.7,3.1-12.1c0-4.3-1.1-8.3-3.3-12.2c-2.1-3.6-5.2-6.7-8.8-8.8
		C177.8,1.1,173.7,0,169.3,0L169.3,0z"/>
	<path fill="#44B649" d="M193.5,24.1c0,4.4-1,8.5-3.1,12.1s-5.2,6.7-8.8,8.8s-7.7,3.3-12.1,3.3V0c4.4,0,8.5,1.1,12.1,3.1
		c3.8,2.1,6.7,5.2,8.8,8.8C192.5,15.8,193.5,19.8,193.5,24.1z"/>
</g>
<path fill="#FDC010" d="M241.9,24c0,4.4-1,8.5-3.2,12.1c-2.1,3.6-5.2,6.7-8.8,8.8s-7.7,3.1-12.1,3.1c-4.4,0-8.5-1-12.1-3.1
	s-6.7-5.2-8.8-8.8s-3.2-7.7-3.2-12.1s1.1-8.5,3.2-12.1c2.1-3.6,5.2-6.7,8.8-8.8s7.7-3.1,12-3.1s8.5,1.1,12.1,3.1
	c3.6,2.1,6.7,5.2,8.8,8.8C240.8,15.5,241.9,19.6,241.9,24z"/>
<path fill="#FF0000" d="M290,24c0,4.4-1,8.5-3.2,12.1c-2.1,3.6-5.2,6.7-8.8,8.8c-3.6,2.1-7.7,3.1-12.1,3.1s-8.5-1-12.1-3.1
	s-6.7-5.2-8.8-8.8s-3.2-7.7-3.2-12.1s1.1-8.5,3.2-12.1c2.1-3.6,5.2-6.7,8.8-8.8s7.7-3.1,12-3.1c4.4,0,8.5,1.1,12.1,3.1
	c3.6,2.1,6.7,5.2,8.8,8.8C288.8,15.5,290,19.6,290,24z"/>
</svg>
