<?xml version="1.0" encoding="utf-8"?>
<!-- Generated by IcoMoon.io -->
<!DOCTYPE svg PUBLIC "-//W3C//DTD SVG 1.1//EN" "http://www.w3.org/Graphics/SVG/1.1/DTD/svg11.dtd">
<svg version="1.1" xmlns="http://www.w3.org/2000/svg" xmlns:xlink="http://www.w3.org/1999/xlink" width="32" height="32" viewBox="0 0 32 32">
<path fill="#fff" d="M6.878 5.492h-0.66v-1.797h-2.449v1.797h-0.66c-0.22 0-0.394 0.174-0.394 0.394v1.842h4.557v-1.842c-0-0.22-0.175-0.394-0.394-0.394zM28.951 5.492h-0.66v-1.797h-2.457v1.797h-0.66c-0.22 0-0.394 0.174-0.394 0.394v1.842h4.565v-1.842c0-0.22-0.174-0.394-0.394-0.394zM27.912 19.368h-1.744v1.744h-1.084v-1.744h-1.714v-1.084h1.714v-1.714h1.077v1.714h1.744v1.084h0.007zM18.631 19.049c-0.258 0.273-0.5 0.531-0.743 0.789l-3.018 3.177c-0.136 0.144-0.652 0.66-0.705 0.705l-0.053 0.046h-0.402l0.114-0.258c0.288-0.667 0.553-1.357 0.811-2.024 0.235-0.607 0.478-1.228 0.743-1.865h-2.661l0.265-0.303c0.819-0.933 1.623-1.842 2.419-2.745 0.781-0.88 1.554-1.752 2.32-2.631l0.106-0.121 0.266 0.174-0.053 0.144c-0.281 0.72-0.546 1.448-0.827 2.184-0.25 0.667-0.5 1.335-0.758 2.017h2.843l-0.667 0.713zM8.638 19.398h-4.549v-1.152h4.549v1.152zM29.557 8.457h-5.861v-1.304c0-0.394-0.318-0.713-0.713-0.713h-13.967c-0.394 0-0.713 0.319-0.713 0.713v1.304h-5.861c-1.266 0-2.29 1.024-2.29 2.29v15.385c0 1.266 1.024 2.29 2.29 2.29h27.115c1.266 0 2.29-1.024 2.29-2.29v-15.385c0-1.259-1.023-2.29-2.29-2.29z"></path>
</svg>
