<?xml version="1.0" encoding="utf-8"?>
<!-- Generated by IcoMoon.io -->
<!DOCTYPE svg PUBLIC "-//W3C//DTD SVG 1.1//EN" "http://www.w3.org/Graphics/SVG/1.1/DTD/svg11.dtd">
<svg version="1.1" xmlns="http://www.w3.org/2000/svg" xmlns:xlink="http://www.w3.org/1999/xlink" width="32" height="32" viewBox="0 0 32 32">
<path fill="#fff" d="M0.021 17.061c0-7.825 6.011-14.254 13.664-14.918-0.007 0.022-0.007 0.052-0.015 0.075l-0.657 4.413c-0.022 0.157-0.007 0.314 0.037 0.455l0.366 1.127c-4.211 0.747-7.414 4.42-7.414 8.848 0 4.958 4.025 8.982 8.982 8.982 4.42 0 8.101-3.203 8.848-7.414l1.127 0.366c0.149 0.045 0.306 0.060 0.455 0.037l4.413-0.657c0.022 0 0.052-0.007 0.075-0.015-0.664 7.653-7.093 13.664-14.918 13.664-8.251 0.015-14.963-6.698-14.963-14.963zM29.455 13.948c0.485-0.269 0.657-0.874 0.388-1.359-2.494-4.51-5.884-8.071-10.401-10.394-0.493-0.254-1.090-0.060-1.344 0.433s-0.060 1.090 0.433 1.344c4.121 2.113 7.243 5.361 9.572 9.58 0.261 0.485 0.874 0.657 1.351 0.396zM25.647 17.024l-1.672-0.545c-0.261-0.090-0.478-0.276-0.597-0.53-1.463-3.173-3.718-5.705-7.25-7.258-0.261-0.112-0.463-0.336-0.545-0.605l-0.545-1.672c-0.045-0.149-0.060-0.306-0.037-0.455l0.575-3.905c0.030-0.217 0.127-0.411 0.284-0.56l1.12-1.12c0.239-0.231 0.567-0.336 0.896-0.276l2.785 0.545c0.097 0.015 0.187 0.052 0.269 0.097 2.15 1.12 4.689 3.502 5.794 4.607s3.487 3.644 4.607 5.794c0.045 0.082 0.075 0.179 0.097 0.269l0.545 2.785c0.060 0.329-0.038 0.665-0.276 0.896l-1.12 1.12c-0.149 0.149-0.351 0.254-0.56 0.284l-3.905 0.575c-0.157 0.015-0.314-0-0.463-0.045zM18.994 13.067c0-0.553-0.448-1.001-1-1.001s-1 0.448-1 1.001 0.448 1.001 1 1.001 1-0.448 1-1.001zM12.998 13.067c0-0.553-0.448-1.001-1.001-1.001s-1.001 0.448-1.001 1.001 0.448 1.001 1.001 1.001 1.001-0.448 1.001-1.001zM20.988 17.061c0-0.552-0.448-1-1.001-1s-1 0.448-1 1c0 0.553 0.448 1.001 1 1.001s1.001-0.448 1.001-1.001zM11.005 17.061c0-0.552-0.448-1-1.001-1s-1 0.448-1 1c0 0.553 0.448 1.001 1 1.001s1.001-0.448 1.001-1.001zM17.994 17.061c0-1.65-1.344-2.994-2.994-2.994s-2.994 1.344-2.994 2.994c0 1.65 1.344 2.994 2.994 2.994s2.994-1.336 2.994-2.994zM18.994 21.056c0-0.553-0.448-1.001-1-1.001s-1 0.448-1 1.001c0 0.552 0.448 1 1 1s1-0.448 1-1zM12.998 21.056c0-0.553-0.448-1.001-1.001-1.001s-1.001 0.448-1.001 1.001c0 0.552 0.448 1 1.001 1s1.001-0.448 1.001-1zM8.011 17.061c0-3.86 3.129-6.989 6.989-6.989s6.989 3.128 6.989 6.989-3.136 6.989-6.989 6.989-6.989-3.129-6.989-6.989z"></path>
</svg>
