<svg xmlns="http://www.w3.org/2000/svg" xmlns:xlink="http://www.w3.org/1999/xlink" width="26" height="26" viewBox="0 0 26 26">
  <defs>
    <style>
      .cls-1 {
        clip-path: url(#clip-car_hover);
      }

      .cls-2 {
        fill: #fff;
      }
    </style>
    <clipPath id="clip-car_hover">
      <rect width="26" height="26"/>
    </clipPath>
  </defs>
  <g id="car_hover" class="cls-1">
    <g id="Group_709" data-name="Group 709" transform="translate(0 7)">
      <path id="Path_548" data-name="Path 548" class="cls-2" d="M.963,177.209c.477-.16,3.8-.885,3.8-.885s6.154-3.5,6.893-3.5l5.8,0c1.238,0,2.272.943,3.47,2.035a22.951,22.951,0,0,0,1.875,1.585l2.56.34a.916.916,0,0,1,.638.873v2.933a.916.916,0,0,1-.916.916H23.325a2.882,2.882,0,0,1-5.741,0h-8.4a2.882,2.882,0,0,1-5.741,0H2c-1.145,0-1.7-.495-1.845-.959C-.2,179.375.054,177.513.963,177.209Zm19.491,5.542a1.493,1.493,0,1,0-1.493-1.493A1.495,1.495,0,0,0,20.454,182.751Zm-5.543-6.427h5.008c-.362-.286-.7-.59-1.006-.871-.811-.739-1.511-1.378-2.349-1.378H14.911v2.25Zm-1.219-2.25H12.243c-.69,0-3.489,1.626-4.54,2.251h5.989v-2.25Zm-7.378,8.677a1.493,1.493,0,1,0-1.493-1.493A1.495,1.495,0,0,0,6.315,182.751Z" transform="translate(0 -172.824)"/>
    </g>
  </g>
</svg>
