<?xml version="1.0" encoding="utf-8"?>
<!-- Generated by IcoMoon.io -->
<!DOCTYPE svg PUBLIC "-//W3C//DTD SVG 1.1//EN" "http://www.w3.org/Graphics/SVG/1.1/DTD/svg11.dtd">
<svg version="1.1" xmlns="http://www.w3.org/2000/svg" xmlns:xlink="http://www.w3.org/1999/xlink" width="32" height="32" viewBox="0 0 32 32">
<path fill="#fff" d="M32 16c0 8.837-7.163 16-16 16s-16-7.163-16-16 7.163-16 16-16c8.837 0 16 7.163 16 16zM16 2.569c-7.418 0-13.431 6.013-13.431 13.431s6.013 13.431 13.431 13.431c7.418 0 13.431-6.013 13.431-13.431s-6.013-13.431-13.431-13.431zM16 12.494v0c0.937 0 1.7 0.763 1.7 1.7v9.271c0 0.937-0.763 1.7-1.7 1.7s-1.7-0.763-1.7-1.7v-9.271c-0.008-0.937 0.756-1.7 1.7-1.7zM16 6.835c1.157 0 2.101 0.937 2.101 2.101 0 1.157-0.937 2.101-2.101 2.101-1.157 0-2.101-0.937-2.101-2.101-0.008-1.157 0.929-2.101 2.101-2.101z"></path>
</svg>
