<?xml version="1.0" encoding="utf-8"?>
<!-- Generated by IcoMoon.io -->
<!DOCTYPE svg PUBLIC "-//W3C//DTD SVG 1.1//EN" "http://www.w3.org/Graphics/SVG/1.1/DTD/svg11.dtd">
<svg version="1.1" xmlns="http://www.w3.org/2000/svg" xmlns:xlink="http://www.w3.org/1999/xlink" width="32" height="32" viewBox="0 0 32 32">
<path fill="#fff" d="M16.069 29.667c-0.062 0-0.124-0.007-0.185-0.020l-12.258-2.662c-0.401-0.087-0.687-0.442-0.687-0.852s0.286-0.765 0.687-0.852l12.258-2.67c0.122-0.027 0.249-0.027 0.371-0l12.266 2.67c0.401 0.087 0.687 0.442 0.687 0.852s-0.286 0.765-0.687 0.852l-12.266 2.662c-0.061 0.013-0.123 0.020-0.185 0.020zM7.915 26.132l8.154 1.77 8.16-1.77-8.159-1.776-8.154 1.776zM31.526 20.6h-30.922c-0.482 0-0.872-0.39-0.872-0.872v-2.132c0-0.482 0.39-0.872 0.872-0.872h30.922c0.482 0 0.872 0.39 0.872 0.872v2.132c0 0.482-0.39 0.872-0.872 0.872zM1.476 18.856h29.178v-0.388h-29.178v0.388zM16.069 24.336c-0.069 0-0.137-0.008-0.205-0.024l-15.465-3.736c-0.468-0.113-0.756-0.584-0.643-1.053s0.585-0.756 1.053-0.643l15.26 3.687 15.26-3.687c0.468-0.113 0.939 0.175 1.053 0.643s-0.175 0.939-0.643 1.053l-15.465 3.736c-0.067 0.016-0.136 0.024-0.205 0.024zM6.472 18.467c-2.245 0-4.071-1.826-4.071-4.071s1.826-4.071 4.071-4.071 4.071 1.826 4.071 4.071-1.826 4.071-4.071 4.071zM6.472 12.070c-1.283 0-2.327 1.044-2.327 2.327s1.044 2.327 2.327 2.327 2.327-1.044 2.327-2.327-1.044-2.327-2.327-2.327zM7.538 14.405c0 0.588-0.479 1.066-1.066 1.066s-1.066-0.479-1.066-1.066c0-0.588 0.479-1.066 1.066-1.066s1.066 0.47 1.066 1.066zM25.665 18.467c-2.245 0-4.071-1.826-4.071-4.071s1.826-4.071 4.071-4.071 4.071 1.826 4.071 4.071-1.826 4.071-4.071 4.071zM25.665 12.070c-1.283 0-2.327 1.044-2.327 2.327s1.044 2.327 2.327 2.327 2.327-1.044 2.327-2.327-1.044-2.327-2.327-2.327zM26.732 14.405c0 0.588-0.479 1.066-1.066 1.066s-1.066-0.479-1.066-1.066c0-0.588 0.479-1.066 1.066-1.066s1.066 0.47 1.066 1.066zM29.905 15.277h-1.913v-0.872c0-1.283-1.044-2.327-2.327-2.327s-2.327 1.044-2.327 2.327v0.872h-14.54v-0.872c0-1.283-1.044-2.327-2.327-2.327s-2.327 1.044-2.327 2.327v0.872h-2.207c-1.217 0-2.207-0.986-2.207-2.199v-4.786c0-0.93 0.757-1.687 1.687-1.687h0.025c0.503 0 0.977-0.264 1.237-0.69l2.655-4.318c0.743-1.207 2.029-1.927 3.438-1.927h10.864c1.406 0 2.691 0.716 3.436 1.915l1.841 2.992c0.762 1.247 2.143 2.020 3.606 2.020h2.2c0.925 0 1.678 0.753 1.678 1.678v4.509c0 1.374-1.118 2.493-2.492 2.493zM29.642 13.533h0.263c0.42 0 0.748-0.329 0.748-0.748v-4.442h-2.134c-2.067 0-4.018-1.093-5.093-2.852l-1.837-2.987c-0.423-0.68-1.153-1.088-1.953-1.088h-10.864c-0.8 0-1.53 0.41-1.953 1.097l-2.652 4.315c-0.567 0.93-1.597 1.512-2.692 1.523v4.728c0 0.255 0.203 0.454 0.463 0.454h0.557c0.4-1.827 2.032-3.199 3.977-3.199s3.577 1.372 3.977 3.199h11.239c0.4-1.827 2.031-3.199 3.977-3.199s3.576 1.372 3.977 3.199zM26.78 6.747h-18.268c-0.726 0-1.317-0.591-1.317-1.317v-2.317c0-0.726 0.591-1.317 1.317-1.317h14.694l1.708 2.784c0.132 0.215 0.306 0.441 0.55 0.711l1.316 1.457zM8.939 5.002h14.188l-0.898-1.463h-13.291v1.463zM15.197 2.667h1.744v3.199h-1.744v-3.199zM18.738 9.408h-2.67c-0.482 0-0.872-0.39-0.872-0.872s0.39-0.872 0.872-0.872h2.67c0.482 0 0.872 0.39 0.872 0.872s-0.39 0.872-0.872 0.872zM18.738 10.474c-0.482 0-0.872-0.39-0.872-0.872v-1.066c0-0.482 0.39-0.872 0.872-0.872s0.872 0.39 0.872 0.872v1.066c0 0.482-0.39 0.872-0.872 0.872zM31.534 11.003h-2.132c-0.482 0-0.872-0.39-0.872-0.872s0.39-0.872 0.872-0.872h2.132c0.482 0 0.872 0.39 0.872 0.872s-0.39 0.872-0.872 0.872zM2.744 11.003h-2.141c-0.482 0-0.872-0.39-0.872-0.872s0.39-0.872 0.872-0.872h2.141c0.482 0 0.872 0.39 0.872 0.872s-0.39 0.872-0.872 0.872zM31.534 32.329h-30.93c-0.453 0-0.83-0.346-0.869-0.798s0.275-0.857 0.721-0.934l15.465-2.662c0.098-0.017 0.198-0.017 0.296 0l15.465 2.662c0.446 0.077 0.76 0.482 0.721 0.934s-0.416 0.798-0.869 0.798zM10.813 30.585h10.511l-5.256-0.904-5.256 0.904z"></path>
</svg>
