<?xml version="1.0" encoding="utf-8"?>
<!-- Generated by IcoMoon.io -->
<!DOCTYPE svg PUBLIC "-//W3C//DTD SVG 1.1//EN" "http://www.w3.org/Graphics/SVG/1.1/DTD/svg11.dtd">
<svg version="1.1" xmlns="http://www.w3.org/2000/svg" xmlns:xlink="http://www.w3.org/1999/xlink" width="32" height="32" viewBox="0 0 32 32">
<path fill="#fff" d="M26.581 23.659c-1.771 0-3.211-1.442-3.211-3.212 0-1.052 0.517-1.993 1.31-2.583l0.997 2.878c0.128 0.407 0.496 0.645 0.903 0.645 0.092 0 0.203-0.018 0.315-0.055 0.498-0.167 0.775-0.718 0.61-1.216l-0.997-2.9c0.018 0 0.055 0 0.073 0 1.771 0 3.211 1.442 3.211 3.212-0.018 1.788-1.458 3.23-3.211 3.23zM5.438 23.659c-1.772 0-3.211-1.442-3.211-3.212s1.438-3.209 3.211-3.209c1.44 0 2.638 0.94 3.044 2.233h-3.044c-0.535 0-0.96 0.423-0.96 0.958s0.425 0.958 0.96 0.958h3.044c-0.405 1.33-1.605 2.272-3.044 2.272zM26.581 15.335c-0.24 0-0.48 0.018-0.718 0.055l-0.517-1.531c0.407-0.075 0.812-0.112 1.236-0.112h1.275c0-1.918-1.92-3.838-3.838-3.838l-0.61-1.66c-0.368-1.070-1.476-1.863-2.601-1.863h-1.275c-0.535 0-0.958 0.425-0.958 0.96s0.423 0.96 0.958 0.96h1.275c0.295 0 0.683 0.276 0.793 0.572l0.35 1.033h-5.627c-1.253 0-2.508 0.812-3.228 1.92h-8.949c-1.918 0-3.838 1.918-3.838 3.838 1.31-1.182 3.118-1.92 5.131-1.92 3.394 0 6.181 2.508 6.642 5.778h-1.623c-0.443-2.366-2.528-4.172-5.038-4.172-2.823 0-5.129 2.286-5.129 5.131 0 2.841 2.288 5.129 5.129 5.129 2.51 0 4.576-1.788 5.038-4.171h9.39v-0.96c0-2.601 1.495-4.871 3.671-5.979l0.517 1.531c-1.55 0.887-2.583 2.544-2.583 4.446 0 2.823 2.288 5.129 5.129 5.129 2.823 0 5.131-2.288 5.131-5.129s-2.308-5.147-5.131-5.147z"></path>
</svg>
