<svg id="Ebene_1" data-name="Ebene 1" xmlns="http://www.w3.org/2000/svg" viewBox="0 0 512 512"><defs><style>.cls-1{fill:#333;}</style></defs><title>if_grey_new_seo-44_298304</title><path class="cls-1" d="M343.14,175H237.63a7.28,7.28,0,0,1,0-14.55H343.14a7.28,7.28,0,0,1,0,14.55Z"/><path class="cls-1" d="M343.14,236.9H237.63a7.28,7.28,0,0,1,0-14.55H343.14a7.28,7.28,0,0,1,0,14.55Z"/><path class="cls-1" d="M343.14,298.76H237.63a7.28,7.28,0,0,1,0-14.55H343.14a7.28,7.28,0,0,1,0,14.55Z"/><path class="cls-1" d="M343.14,360.61H237.63a7.28,7.28,0,0,1,0-14.55H343.14a7.28,7.28,0,0,1,0,14.55Z"/><circle class="cls-1" cx="186.69" cy="353.34" r="14.55"/><circle class="cls-1" cx="186.69" cy="291.48" r="14.55"/><path class="cls-1" d="M212.75,209a7.28,7.28,0,0,0-10.29,0l-19,19-9.86-9.86a7.28,7.28,0,0,0-10.29,10.29l15,15a7.27,7.27,0,0,0,10.29,0l24.11-24.11A7.28,7.28,0,0,0,212.75,209Z"/><path class="cls-1" d="M212.75,147.16a7.28,7.28,0,0,0-10.29,0l-19,19-9.86-9.86a7.28,7.28,0,0,0-10.29,10.29l15,15a7.27,7.27,0,0,0,10.29,0l24.11-24.11A7.28,7.28,0,0,0,212.75,147.16Z"/><path class="cls-1" d="M185.75,65h-50C119.67,65,103,76.19,103,92.27V416.1c0,16.08,16.67,30.93,32.75,30.93H379.53C395.61,447,405,432.17,405,416.1V92.27C405,76.19,395.61,65,379.53,65H185.75ZM375.89,94.08V417.92H132.11V94.08"/></svg>