<?xml version="1.0" encoding="utf-8"?>
<!-- Generated by IcoMoon.io -->
<!DOCTYPE svg PUBLIC "-//W3C//DTD SVG 1.1//EN" "http://www.w3.org/Graphics/SVG/1.1/DTD/svg11.dtd">
<svg version="1.1" xmlns="http://www.w3.org/2000/svg" xmlns:xlink="http://www.w3.org/1999/xlink" width="32" height="32" viewBox="0 0 32 32">
<path fill="#fff" d="M20.165 21.071c-0.76 0-1.255-0.775-1.255-1.668v-0.037c0-0.871 0.421-1.632 1.218-1.632 0.76 0 1.255 0.775 1.255 1.668v0.037c0 0.849-0.421 1.631-1.218 1.631zM11.993 14.273c-0.76 0-1.255-0.775-1.255-1.668v-0.037c0-0.871 0.421-1.631 1.218-1.631 0.76 0 1.255 0.775 1.255 1.668v0.037c0 0.856-0.421 1.631-1.218 1.631zM20.128 22.799c1.942 0 3.248-1.535 3.248-3.396v-0.037c0-1.86-1.292-3.359-3.211-3.359-1.942 0-3.248 1.521-3.248 3.396v0.037c0 1.86 1.292 3.359 3.211 3.359zM10.871 21.869c0 0.495 0.399 0.893 0.893 0.893 0.303 0 0.605-0.155 0.783-0.399l8.497-11.619c0.133-0.17 0.207-0.362 0.207-0.605 0-0.495-0.399-0.893-0.893-0.893-0.303 0-0.605 0.155-0.782 0.399l-8.497 11.612c-0.111 0.177-0.207 0.362-0.207 0.613zM11.956 16c1.941 0 3.248-1.536 3.248-3.396v-0.037c0-1.86-1.292-3.359-3.211-3.359-1.941 0-3.248 1.521-3.248 3.396v0.037c0 1.86 1.292 3.359 3.211 3.359zM22.527 27.199l-1.757 4.215c-0.022 0.044-0.044 0.088-0.074 0.133-0.221 0.325-0.672 0.413-0.997 0.184l-4.112-2.813-3.765 2.599c-0.037 0.030-0.081 0.052-0.125 0.074-0.362 0.155-0.783-0.015-0.938-0.384l-1.949-4.577-4.525 0.155c-0.066 0.008-0.125 0.008-0.192-0.007-0.391-0.067-0.657-0.436-0.591-0.827l0.849-4.909-3.868-2.311c-0.059-0.029-0.118-0.067-0.17-0.118-0.295-0.266-0.31-0.723-0.044-1.011l3.366-3.662-2.045-4.090c-0.022-0.044-0.037-0.088-0.052-0.14-0.103-0.384 0.125-0.775 0.509-0.879l4.821-1.262 0.495-4.518c0.008-0.059 0.015-0.111 0.030-0.17 0.126-0.377 0.532-0.583 0.908-0.458l4.739 1.536 2.849-3.521c0.037-0.052 0.081-0.096 0.133-0.14 0.31-0.251 0.76-0.207 1.011 0.103l3.152 3.854 4.341-1.44c0.044-0.015 0.096-0.022 0.14-0.030 0.391-0.044 0.753 0.236 0.797 0.635l0.568 4.946 4.415 1.13c0.052 0.015 0.103 0.030 0.155 0.052 0.354 0.177 0.502 0.605 0.332 0.96l-2.2 4.466 3.086 3.322c0.044 0.044 0.081 0.089 0.118 0.148 0.207 0.34 0.096 0.782-0.244 0.982l-4.267 2.576 0.805 4.474c0.015 0.052 0.015 0.111 0.015 0.17-0.007 0.399-0.34 0.709-0.738 0.694l-4.983-0.14z"></path>
</svg>
