<?xml version="1.0" encoding="utf-8"?>
<!-- Generated by IcoMoon.io -->
<!DOCTYPE svg PUBLIC "-//W3C//DTD SVG 1.1//EN" "http://www.w3.org/Graphics/SVG/1.1/DTD/svg11.dtd">
<svg version="1.1" xmlns="http://www.w3.org/2000/svg" xmlns:xlink="http://www.w3.org/1999/xlink" width="32" height="32" viewBox="0 0 32 32">
<path fill="#fff" d="M13.033 11.333h-1.623v8.125c2.378 1.006 3.775 0.203 4.245-0.179-0.511-2.37-1.331-5.089-2.622-7.947zM10.33 11.333h-1.623c-1.234 2.744-2.045 5.366-2.565 7.663 0.601-0.235 2.2-0.698 4.188 0v-7.663zM17.011 5.375c-0.008 0-0.016 0-0.032 0 0.016 1.388 0.252 4.059 1.534 6.859 0.122 0.26 0.008 0.568-0.252 0.69-0.073 0.033-0.146 0.049-0.219 0.049-0.195 0-0.357-0.13-0.471-0.3-1.721-2.687-2.37-5.236-2.614-6.697-0.706 0.422-1.315 1.023-1.721 1.672 0.244 0.179 0.43 0.43 0.503 0.706l0.398 1.453c0.097 0.349-0.008 0.649-0.235 0.836 4.213 9.164 3.701 16.957 3.701 16.957s-2.24 4.383-3.88 4.383c-0.674 0-5.033 0-5.715 0-1.64 0-3.88-4.383-3.88-4.383s-0.503-7.793 3.701-16.957c-0.227-0.179-0.333-0.487-0.235-0.828l0.398-1.453c0.073-0.276 0.26-0.52 0.495-0.698h0.877c0.203 0 0.365-0.162 0.365-0.365s-0.162-0.365-0.365-0.365h-1.437c-0.852-0.933-1.835-1.396-2.646-1.753-0.333-0.146-0.398-0.682-0.187-0.966 0.568-0.763 1.656-2.216 1.81-2.411 0.365-0.454 0.86-0.787 1.575-0.747 1.063 0.065 10.95 0.779 10.95 0.779l-0.179 0.609 0.974 0.049-0.698 2.289c0 0-0.292 0.032-0.974 0.049l-0.162 0.552c0-0.008-0.317-0.008-1.38-0.008zM26.638 7.030c0 0.349 0.284 0.625 0.633 0.625s0.633-0.284 0.633-0.625c0-0.349-0.284-0.633-0.633-0.633-0.357 0-0.633 0.284-0.633 0.633zM26.638 3.84c0 0.349 0.284 0.633 0.633 0.633s0.633-0.284 0.633-0.633c0-0.349-0.284-0.625-0.633-0.625-0.357-0.008-0.633 0.276-0.633 0.625zM26.638 0.65c0 0.349 0.284 0.625 0.633 0.625s0.633-0.284 0.633-0.625c0-0.349-0.284-0.633-0.633-0.633-0.357 0.008-0.633 0.284-0.633 0.633zM23.951 5.431c0 0.349 0.284 0.633 0.633 0.633s0.633-0.284 0.633-0.633c0-0.349-0.284-0.625-0.633-0.625s-0.633 0.276-0.633 0.625zM23.951 2.249c0 0.349 0.284 0.633 0.633 0.633s0.633-0.284 0.633-0.633c0-0.349-0.284-0.625-0.633-0.625-0.349-0.008-0.633 0.276-0.633 0.625zM22.401 3.207c0.349 0 0.633 0.284 0.633 0.625s-0.284 0.633-0.633 0.633c-0.349 0-0.633-0.284-0.633-0.633s0.284-0.625 0.633-0.625z"></path>
</svg>
