<?xml version="1.0" encoding="utf-8"?>
<!-- Generated by IcoMoon.io -->
<!DOCTYPE svg PUBLIC "-//W3C//DTD SVG 1.1//EN" "http://www.w3.org/Graphics/SVG/1.1/DTD/svg11.dtd">
<svg version="1.1" xmlns="http://www.w3.org/2000/svg" xmlns:xlink="http://www.w3.org/1999/xlink" width="32" height="32" viewBox="0 0 32 32">
<path fill="#fff" d="M11.095 29.587c-1.116 0-2.024-0.898-2.024-2.001s0.908-2.002 2.024-2.002 2.024 0.898 2.024 2.002c0 1.103-0.908 2.001-2.024 2.001zM11.095 27.473c-0.049 0-0.090 0.051-0.090 0.112s0.041 0.112 0.090 0.112c0.054 0 0.090-0.058 0.090-0.112s-0.036-0.112-0.090-0.112zM11.050 31.846c-2.63 0-4.77-2.103-4.77-4.689 0-0.025 0.001-0.050 0.003-0.074l0.968-13.717c-1.579-1.083-4.189-3.319-4.189-6.273 0-2.627 1.329-5.066 3.556-6.524 0.325-0.213 0.74-0.23 1.081-0.046s0.554 0.541 0.554 0.929v4.101l1.361 2.033h2.859l1.367-2.034v-4.1c0-0.388 0.213-0.746 0.555-0.93s0.757-0.166 1.082 0.047c2.226 1.463 3.555 3.902 3.555 6.523 0 2.954-2.609 5.19-4.189 6.273l0.975 13.717c0.002 0.025 0.003 0.050 0.003 0.075 0 2.585-2.14 4.689-4.77 4.689zM8.394 27.191c0.019 1.404 1.203 2.542 2.656 2.542s2.637-1.137 2.656-2.541l-1.016-14.295c-0.028-0.391 0.163-0.765 0.496-0.972 1.804-1.122 3.731-2.981 3.731-4.831 0-1.134-0.344-2.223-0.965-3.144v1.926c0 0.21-0.063 0.415-0.18 0.589l-1.86 2.768c-0.196 0.292-0.525 0.467-0.877 0.467h-3.986c-0.353 0-0.682-0.176-0.878-0.469l-1.853-2.768c-0.116-0.174-0.179-0.378-0.179-0.588v-1.929c-0.621 0.921-0.965 2.010-0.965 3.147 0 1.851 1.928 3.709 3.731 4.831 0.333 0.207 0.523 0.581 0.496 0.971l-1.008 14.296zM24.006 31.897c-2.744 0-4.976-1.878-4.976-4.187v-7.316c0-0.412 0.239-0.786 0.613-0.959 0.327-0.151 0.538-0.392 0.538-0.613s-0.211-0.462-0.538-0.613c-0.374-0.173-0.613-0.547-0.613-0.959v-2.68c0-0.584 0.473-1.057 1.057-1.057h7.847c0.584 0 1.057 0.473 1.057 1.057v2.672c0 0.412-0.239 0.786-0.613 0.959-0.327 0.151-0.538 0.392-0.538 0.613 0 0.275 0.276 0.502 0.535 0.622 0.372 0.174 0.609 0.547 0.609 0.957v7.316c0 2.308-2.232 4.186-4.976 4.186zM21.143 20.99v6.72c0 1.124 1.311 2.073 2.863 2.073s2.863-0.95 2.863-2.073v-6.723c-0.719-0.541-1.144-1.329-1.144-2.172 0-0.842 0.428-1.628 1.151-2.168v-1.020h-5.734v1.028c0.723 0.54 1.152 1.326 1.152 2.168s-0.428 1.628-1.152 2.168zM24.006 15.627c-0.584 0-1.057-0.473-1.057-1.057v-9.973c0-0.584 0.473-1.057 1.057-1.057s1.057 0.473 1.057 1.057v9.973c0 0.584-0.473 1.057-1.057 1.057zM24.788 5.654h-1.565c-0.462 0-0.871-0.3-1.009-0.741l-0.598-1.912c-0.074-0.238-0.062-0.494 0.034-0.724l0.598-1.425c0.165-0.392 0.549-0.648 0.974-0.648h1.565c0.426 0 0.81 0.255 0.974 0.648l0.598 1.425c0.096 0.23 0.108 0.486 0.034 0.724l-0.598 1.912c-0.138 0.441-0.546 0.741-1.008 0.741zM24 3.541h0.012l0.251-0.803-0.177-0.421h-0.16l-0.177 0.421 0.251 0.803zM24.006 28.642c-0.584 0-1.057-0.473-1.057-1.057v-6.053c0-0.584 0.473-1.057 1.057-1.057s1.057 0.473 1.057 1.057v6.053c0 0.584-0.473 1.057-1.057 1.057z"></path>
</svg>
