<svg xmlns="http://www.w3.org/2000/svg" xmlns:xlink="http://www.w3.org/1999/xlink" width="26" height="26" viewBox="0 0 26 26">
  <defs>
    <style>
      .cls-1 {
        clip-path: url(#clip-truck);
      }
    </style>
    <clipPath id="clip-truck">
      <rect width="26" height="26"/>
    </clipPath>
  </defs>
  <g id="truck" class="cls-1">
    <g id="Group_710" data-name="Group 710" transform="translate(0 4)">
      <path id="Path_549" data-name="Path 549" d="M0,109.655v-.918a1.676,1.676,0,0,1,.5-1.191l4.936-4.884a1.675,1.675,0,0,1,1.178-.484H9.1v-.934a1.257,1.257,0,0,1,1.257-1.257H24.743A1.257,1.257,0,0,1,26,101.244v8.411Zm7.624-5.831a.2.2,0,0,0-.2-.2H6.518a.212.212,0,0,0-.138.054l-3.866,3.69a.2.2,0,0,0,.134.339H7.427a.2.2,0,0,0,.2-.2v-3.69ZM0,110.349v2.782a1.257,1.257,0,0,0,1.257,1.257H2.6a3.448,3.448,0,0,1,6.824,0H16.24a3.446,3.446,0,0,1,6.819,0h1.684A1.257,1.257,0,0,0,26,113.132V110.35H0Zm6.013,1.929a2.606,2.606,0,1,1-2.606,2.606A2.606,2.606,0,0,1,6.013,112.279Zm0,3.91a1.3,1.3,0,1,0-1.3-1.3A1.3,1.3,0,0,0,6.013,116.188Zm13.637-3.91a2.606,2.606,0,1,1-2.606,2.606A2.606,2.606,0,0,1,19.65,112.279Zm0,3.91a1.3,1.3,0,1,0-1.3-1.3A1.3,1.3,0,0,0,19.65,116.188Z" transform="translate(0 -99.987)"/>
    </g>
  </g>
</svg>
