<?xml version="1.0" encoding="utf-8"?>
<!-- Generated by IcoMoon.io -->
<!DOCTYPE svg PUBLIC "-//W3C//DTD SVG 1.1//EN" "http://www.w3.org/Graphics/SVG/1.1/DTD/svg11.dtd">
<svg version="1.1" xmlns="http://www.w3.org/2000/svg" xmlns:xlink="http://www.w3.org/1999/xlink" width="32" height="32" viewBox="0 0 32 32">
<path fill="#333" d="M28.292 16.094c0 8.686-3.586 15.727-8.010 15.727s-8.010-7.041-8.010-15.727c0-8.686 3.586-15.727 8.010-15.727s8.010 7.041 8.010 15.727zM21.607 8.457c-1.72 0-3.114 3.419-3.114 7.637s1.394 7.637 3.114 7.637c1.72 0 3.114-3.419 3.114-7.637s-1.394-7.637-3.114-7.637zM14.631 28.37c-0.512 0.235-1.024 0.47-1.536 0.68l-0.101-0.126c-0.21-0.311-0.411-0.621-0.596-0.941l-0.118-0.201 1.637-0.739c0.025 0.059 0.059 0.126 0.092 0.185 0.176 0.37 0.386 0.756 0.621 1.142v0zM7.864 27.43c-0.604-0.076-0.638 0.848-0.017 0.89l3.115 0.579 0.050 0.076c0.68 1.008 1.486 1.948 2.426 2.72 0.050 0.042 0.134 0.034 0.176-0.017s0.034-0.134-0.017-0.176c-1.99-1.629-3.384-4.030-4.274-6.406-1.066-2.871-1.528-6.011-1.486-9.067 0.042-2.922 0.563-6.037 1.612-8.774 0.898-2.351 2.267-4.702 4.164-6.381 0.050-0.042 0.059-0.126 0.008-0.176-0.042-0.050-0.126-0.059-0.176-0.008-0.512 0.453-0.982 0.957-1.419 1.486l-0.118 0.118c-0.092-0.050-0.159-0.092-0.252-0.143l-1.511-0.882c-0.218-0.126-0.504-0.050-0.63 0.168s-0.050 0.504 0.168 0.63l1.679 0.982-0.126 0.185c-0.193 0.277-0.369 0.563-0.546 0.856l-0.101 0.168c-0.092-0.050-0.185-0.109-0.277-0.16l-2.032-1.133c-0.227-0.118-0.504-0.042-0.63 0.185-0.126 0.218-0.042 0.504 0.185 0.621l2.032 1.108c0.126 0.067 0.16 0.109 0.269 0.201l-0.067 0.126c-0.227 0.445-0.437 0.898-0.621 1.36l-0.084 0.218c-0.798-0.453-1.587-0.89-2.393-1.327-0.227-0.118-0.504-0.042-0.621 0.185s-0.042 0.504 0.185 0.621l2.065 1.125 0.437 0.252-0.034 0.084c-0.151 0.437-0.294 0.882-0.42 1.327l-0.076 0.252-2.057-1.125c-0.227-0.126-0.504-0.042-0.621 0.185s-0.042 0.504 0.185 0.621l1.998 1.091c0.109 0.059 0.151 0.084 0.252 0.159l-0.017 0.126c-0.109 0.479-0.201 0.957-0.286 1.444l-0.050 0.294-2.342-1.285c-0.227-0.126-0.504-0.042-0.621 0.185-0.126 0.227-0.042 0.504 0.185 0.63l2.208 1.217c0.109 0.059 0.201 0.143 0.319 0.201l0.134 0.067-0.017 0.143c-0.042 0.369-0.084 0.739-0.109 1.117l-0.025 0.327-2.242-1.234c-0.227-0.126-0.504-0.042-0.621 0.185-0.126 0.227-0.042 0.504 0.185 0.63l2.259 1.242c0.092 0.050 0.185 0.109 0.277 0.168l0.109 0.059v0.126c0 0.050 0 0.101 0 0.143-0.008 0.336 0 0.672 0.008 0.999l0.008 0.361-2.267-1.243c-0.227-0.126-0.504-0.042-0.621 0.185-0.126 0.227-0.042 0.504 0.185 0.63l2.175 1.192c0.235 0.126 0.294 0.117 0.571 0.235 0.025 0.394 0.067 0.789 0.109 1.192l0.042 0.386-2.326-1.142c-0.227-0.109-0.504-0.017-0.613 0.21s-0.017 0.504 0.21 0.613l2.376 1.167c0.134 0.067 0.269 0.126 0.411 0.185l0.101 0.042 0.017 0.109c0.059 0.344 0.143 0.672 0.218 1.016l0.084 0.378-2.191-0.831c-0.235-0.093-0.504 0.025-0.596 0.268-0.092 0.235 0.025 0.504 0.269 0.596l2.804 1.033 0.034 0.1c0.092 0.311 0.185 0.613 0.294 0.924l0.126 0.378-2.342-0.646c-0.244-0.067-0.495 0.076-0.563 0.319s0.076 0.495 0.319 0.563l2.317 0.638c0.176 0.050 0.369 0.084 0.554 0.109l0.118 0.017 0.042 0.109c0.201 0.487 0.42 0.932 0.672 1.393l0.201 0.386-2.494-0.462zM11.726 16.641l-0.050 0.025c0.008 0.588 0.042 1.159 0.084 1.721l0.050-0.025-2.107 0.924-0.025-0.286c-0.042-0.453-0.076-0.907-0.092-1.36 0.126-0.109 0.176-0.134 0.453-0.26l1.688-0.739zM11.784 14.080l-0.059 0.025c-0.034 0.512-0.050 1.024-0.059 1.545l0.050-0.025-2.175 0.957v-0.319c0-0.084 0-0.168 0-0.26 0.008-0.361 0-0.563 0.017-0.924 0.453-0.269 0.411-0.218 0.697-0.344l1.528-0.655zM12.045 11.494l-0.050 0.017c-0.076 0.512-0.143 1.033-0.193 1.562l0.050-0.025-2.216 0.974 0.034-0.361c0.050-0.487 0.109-0.966 0.185-1.444l0.017-0.092 0.076-0.050c0.151-0.101 0.235-0.101 0.395-0.143l1.704-0.437zM12.557 8.85l-0.034 0.008c-0.134 0.537-0.26 1.083-0.361 1.654l0.042-0.008-2.141 0.554 0.067-0.336c0.092-0.428 0.193-0.84 0.311-1.259l0.034-0.118 0.126-0.025c0.176-0.042 0.353-0.076 0.529-0.118l1.427-0.353zM13.371 6.264h-0.017c-0.201 0.504-0.378 1.033-0.546 1.578l0.034-0.008-2.065 0.495 0.126-0.361c0.084-0.243 0.176-0.495 0.269-0.73 0.059-0.16 0.126-0.311 0.185-0.462l0.042-0.101 0.109-0.025c0.168-0.034 0.327-0.059 0.495-0.092l1.368-0.294zM13.875 5.063v0c-0.025 0.059-0.050 0.109-0.084 0.168v0l-1.965 0.42 0.201-0.395c0.126-0.244 0.243-0.487 0.378-0.731 0.118-0.21 0.243-0.42 0.369-0.621l0.059-0.092h0.109c0.235-0.008 0.47-0.017 0.697-0.050l0.999-0.151c-0.235 0.395-0.453 0.789-0.646 1.184-0.034 0.092-0.075 0.185-0.117 0.269v0zM18.224 31.863c-0.328 0.017-0.638 0.025-0.932 0.042-2.72 0.117-4.257 0.193-6.549-0.050-1.755-0.185-3.644-2.292-4.987-5.566-1.15-2.788-1.939-6.457-1.939-10.487 0-3.954 0.798-7.456 1.923-10.109 1.369-3.232 3.308-5.256 5.004-5.415 1.486-0.143 3.367-0.243 5.13-0.252 0.89-0.008 1.755 0.008 2.519 0.059-1.209 0.487-2.225 1.419-3.048 2.502l-1.855 0.277 0.336-0.42c0.453-0.571 0.949-1.1 1.495-1.587 0.050-0.042 0.059-0.126 0.008-0.176-0.042-0.050-0.126-0.059-0.176-0.008-1.931 1.713-3.325 4.089-4.24 6.482-1.075 2.804-1.587 5.86-1.62 8.858-0.042 3.090 0.42 6.255 1.503 9.16 0.907 2.426 2.326 4.853 4.349 6.515 0.050 0.042 0.134 0.034 0.176-0.017s0.034-0.134-0.017-0.176c-0.537-0.445-1.033-0.941-1.486-1.478l-0.176-0.218 1.486-0.655c0.823 1.151 1.856 2.166 3.098 2.721v0zM12.985 24.651l-0.025 0.009c0.176 0.537 0.369 1.050 0.571 1.528h0.008l-1.427 0.646c-0.017 0.009-0.034 0.017-0.059 0.034l-0.201 0.126-0.101-0.21c-0.185-0.378-0.353-0.764-0.512-1.151l-0.084-0.201c0.613-0.218 1.226-0.504 1.83-0.781v0zM12.33 22.174l-0.034 0.017c0.117 0.546 0.243 1.066 0.386 1.579l0.025-0.009-1.855 0.815-0.076-0.218c-0.126-0.386-0.243-0.781-0.353-1.176l-0.017-0.076c0.185-0.084 0.319-0.16 0.462-0.227l1.461-0.705zM11.852 19.37c0.067 0.646 0.16 1.276 0.269 1.889l0.042-0.017-1.646 0.798c-0.025 0.009-0.050 0.026-0.067 0.034l-0.252 0.16-0.067-0.302c-0.118-0.537-0.218-1.083-0.294-1.637l2.015-0.924z"></path>
</svg>
