<?xml version="1.0" encoding="utf-8"?>
<!-- Generator: Adobe Illustrator 25.2.3, SVG Export Plug-In . SVG Version: 6.00 Build 0)  -->
<svg version="1.1" id="Layer_1" xmlns="http://www.w3.org/2000/svg" xmlns:xlink="http://www.w3.org/1999/xlink" x="0px" y="0px"
	 viewBox="0 0 1280 1024" style="enable-background:new 0 0 1280 1024;" xml:space="preserve">
<g>
	<path d="M404.96,368.59l-19-8.13c-5.96-2.55-13.51-0.05-16.76,5.58l-20.68,35.75c-3.25,5.62-1.66,13.41,3.53,17.31l23,17.27
		c5.19,3.89,7.77,12.13,5.76,18.3l-7.12,26.66c-1.35,6.35-7.75,12.17-14.18,12.94l-28.57,3.43c-6.45,0.76-11.73,6.72-11.73,13.2
		l-0.04,41.31c0,6.49,5.28,12.44,11.71,13.2l28.57,3.47c6.44,0.79,12.82,6.63,14.17,12.97l7.09,26.67c2,6.17-0.61,14.4-5.8,18.29
		l-23.03,17.24c-5.19,3.89-6.79,11.66-3.54,17.29l11.14,19.32l88.28-83.34c-8-20.35-12.39-42.52-12.38-65.7
		c0.03-36.81,11.15-71,30.19-99.43L404.96,368.59z"/>
	<path d="M614.38,710.88c-19.98-0.01-39.22-3.3-57.16-9.35l-84.42,89.43l11.74,6.79c5.61,3.25,13.41,1.66,17.29-3.53l17.27-22.99
		c3.9-5.2,12.15-7.79,18.31-5.77l26.66,7.12c6.35,1.36,12.17,7.74,12.95,14.18l3.42,28.57c0.76,6.45,6.72,11.73,13.2,11.73
		l41.31,0.04c6.49,0,12.44-5.26,13.22-11.71l3.47-28.57c0.78-6.45,6.6-12.81,12.96-14.16l26.67-7.09c6.17-2,14.4,0.6,18.29,5.79
		l17.24,23.03c3.89,5.19,11.67,6.79,17.29,3.56l15.46-8.92l-83.87-88.86C656.55,707.11,635.91,710.9,614.38,710.88z"/>
	<path d="M871.37,677.52l9.14-15.79c3.25-5.62,1.66-13.39-3.53-17.29l-22.99-17.27c-5.19-3.9-7.79-12.13-5.77-18.31l7.14-26.66
		c1.34-6.35,7.74-12.17,14.17-12.95l28.59-3.42c6.45-0.76,11.71-6.7,11.71-13.2l0.04-41.29c0-6.5-5.26-12.44-11.7-13.23l-28.57-3.47
		c-6.45-0.78-12.83-6.6-14.17-12.95l-4.52-17c-3.08,0.19-6.18,0.28-9.3,0.28h-1.5c-19.05,0-37.83,4.03-55.11,11.57
		c5.63,17.43,8.68,36.04,8.67,55.35c-0.01,21.74-3.9,42.57-11.02,61.85L871.37,677.52z"/>
	<path d="M452.84,324.76l61.4,58.54c28.65-19.38,63.2-30.69,100.39-30.66c21.87,0.01,42.82,3.95,62.19,11.15
		c6.75-16.58,10.3-34.44,10.21-52.56c-0.03-4.78,0.17-9.53,0.59-14.22l-22.69-6.07c-6.35-1.35-12.17-7.75-12.94-14.18l-3.42-28.59
		c-0.78-6.44-6.73-11.73-13.22-11.73l-41.29-0.03c-6.5-0.01-12.45,5.26-13.22,11.7l-3.47,28.59c-0.79,6.44-6.61,12.82-12.97,14.16
		l-26.67,7.1c-6.17,2-14.4-0.61-18.29-5.81l-17.24-23.02c-3.89-5.2-11.67-6.81-17.29-3.56l-35.77,20.62
		c-5.62,3.24-8.14,10.78-5.59,16.76L452.84,324.76z"/>
	<path d="M974.22,283.03c-1.28-6.23-9.01-8.52-13.51-4.02l-61.76,61.75c-7.46,7.46-19.57,7.46-27.03,0l-30.34-30.34l-30.34-30.34
		c-7.46-7.46-7.46-19.57,0-27.03l61.76-61.76c4.5-4.5,2.22-12.23-4.02-13.51c-43.11-8.87-89.71,3.43-123.16,36.88
		c-26.62,26.62-39.84,61.57-39.66,96.46c0.22,43.67-17.86,85.45-49.62,115.43L323.73,740.7c-0.87,0.77-1.73,1.58-2.56,2.41
		c-24.22,24.22-24.22,63.49,0,87.72c24.22,24.22,63.49,24.22,87.71,0c0.84-0.84,1.64-1.69,2.42-2.57l314.16-332.81
		c29.98-31.76,71.75-49.84,115.42-49.62c34.89,0.18,69.84-13.04,96.46-39.66C970.78,372.73,983.08,326.14,974.22,283.03z
		 M385.82,807.77c-11.48,11.48-30.1,11.48-41.59,0c-11.48-11.48-11.49-30.1,0-41.59c11.48-11.48,30.11-11.48,41.59,0
		C397.3,777.66,397.3,796.28,385.82,807.77z"/>
	<path d="M363.79,297.7l187.83,197.06l26.06-24.6l-197.78-188.5c-9.68-9.19-17.02-20.56-21.4-33.16l-0.37-1.07l-38.83-25.62
		l-15.32,15.32l25.62,38.83C342.62,280.29,354.36,287.76,363.79,297.7z"/>
	<path d="M910.45,740.7L706.51,548.18l-74.01,78.4l190.38,201.69c0.77,0.87,1.58,1.73,2.41,2.56c24.22,24.22,63.5,24.22,87.72,0
		c24.22-24.22,24.22-63.5,0-87.72C912.18,742.28,911.32,741.48,910.45,740.7z"/>
</g>
</svg>
